<svg width="109" height="118" viewBox="0 0 109 118" fill="none" xmlns="http://www.w3.org/2000/svg">
<path d="M79.4275 21.8861L60.1916 11.5228C56.6386 9.6086 52.3614 9.6086 48.8084 11.5228L29.5725 21.8861L10.6837 31.6879C6.67287 33.7692 4.17127 37.9271 4.21132 42.4456L4.38466 62L4.21132 81.5544C4.17127 86.0729 6.67287 90.2308 10.6837 92.3121L29.5726 102.114L48.8084 112.477C52.3614 114.391 56.6386 114.391 60.1916 112.477L79.4274 102.114L98.3163 92.3121C102.327 90.2308 104.829 86.0729 104.789 81.5544L104.615 62L104.789 42.4456C104.829 37.9271 102.327 33.7692 98.3163 31.6879L79.4275 21.8861Z" fill="#FF0F53" fill-opacity="0.7" stroke="#FF0F53" stroke-width="8"/>
<path d="M47.4667 66.4121C47.6131 70.2695 50.6405 73.1016 54.5467 73.1016C58.3065 73.1016 61.3338 70.3672 61.5292 66.4121L62.8963 33.502C63.0917 28.9121 59.5272 25.2012 54.5467 25.2012C49.6151 25.2012 46.0506 28.9121 46.246 33.502L47.4667 66.4121ZM46.0018 87.2617C46.0018 91.9492 49.8592 94.9766 54.5467 94.9766C59.2342 94.9766 63.0428 91.9492 63.0428 87.2617C63.0428 82.5742 59.2342 79.5469 54.5467 79.5469C49.8592 79.5469 46.0018 82.5742 46.0018 87.2617Z" fill="white"/>
</svg>
