<svg width="113" height="115" viewBox="0 0 113 115" fill="none" xmlns="http://www.w3.org/2000/svg">
<path d="M4 80.3255V36.6569L34.6569 6H76.8602L109 37.674V79.326L76.8602 111H35.1393L4 80.3255Z" fill="#FF0F53" fill-opacity="0.7" stroke="#FF0F53" stroke-width="8"/>
<path d="M50.129 66.4121C50.2755 70.2695 53.3028 73.1016 57.2091 73.1016C60.9689 73.1016 63.9962 70.3672 64.1915 66.4121L65.5587 33.502C65.754 28.9121 62.1896 25.2012 57.2091 25.2012C52.2774 25.2012 48.713 28.9121 48.9083 33.502L50.129 66.4121ZM48.6642 87.2617C48.6642 91.9492 52.5216 94.9766 57.2091 94.9766C61.8966 94.9766 65.7052 91.9492 65.7052 87.2617C65.7052 82.5742 61.8966 79.5469 57.2091 79.5469C52.5216 79.5469 48.6642 82.5742 48.6642 87.2617Z" fill="white"/>
</svg>
