<svg width="108" height="117" viewBox="0 0 108 117" fill="none" xmlns="http://www.w3.org/2000/svg">
<circle cx="54" cy="58.0002" r="49.5" fill="#66C7F4" fill-opacity="0.7" stroke="#66C7F4" stroke-width="9"/>
<path d="M61.5808 49.5893C61.4343 45.7319 58.407 42.8999 54.5007 42.8999C50.741 42.8999 47.7136 45.6343 47.5183 49.5893L46.1511 82.4995C45.9558 87.0894 49.5203 90.8003 54.5007 90.8003C59.4324 90.8003 62.9968 87.0894 62.8015 82.4995L61.5808 49.5893ZM63.0457 28.7397C63.0457 24.0522 59.1882 21.0249 54.5007 21.0249C49.8132 21.0249 46.0046 24.0522 46.0046 28.7397C46.0046 33.4272 49.8132 36.4546 54.5007 36.4546C59.1882 36.4546 63.0457 33.4272 63.0457 28.7397Z" fill="white"/>
</svg>
