<svg width="122" height="119" viewBox="0 0 122 119" fill="none" xmlns="http://www.w3.org/2000/svg">
<path d="M115.54 92.0364L71.9856 11.8046C67.2545 3.08947 54.7453 3.08948 50.0142 11.8046L6.45987 92.0364C1.93838 100.365 7.96834 110.5 17.4455 110.5H104.554C114.031 110.5 120.061 100.365 115.54 92.0364Z" fill="#FFBE0B" fill-opacity="0.7" stroke="#FFBE0B" stroke-width="9"/>
<path d="M54.4199 69.4121C54.5664 73.2695 57.5938 76.1016 61.5 76.1016C65.2598 76.1016 68.2871 73.3672 68.4824 69.4121L69.8496 36.502C70.0449 31.9121 66.4805 28.2012 61.5 28.2012C56.5684 28.2012 53.0039 31.9121 53.1992 36.502L54.4199 69.4121ZM52.9551 90.2617C52.9551 94.9492 56.8125 97.9766 61.5 97.9766C66.1875 97.9766 69.9961 94.9492 69.9961 90.2617C69.9961 85.5742 66.1875 82.5469 61.5 82.5469C56.8125 82.5469 52.9551 85.5742 52.9551 90.2617Z" fill="white"/>
</svg>
