<svg width="118" height="118" viewBox="0 0 118 118" fill="none" xmlns="http://www.w3.org/2000/svg">
<circle cx="59" cy="59.0002" r="54.5" fill="#66C7F4" fill-opacity="0.7" stroke="#66C7F4" stroke-width="9"/>
<path d="M65.5801 50.5879C65.4336 46.7305 62.4062 43.8984 58.5 43.8984C54.7402 43.8984 51.7129 46.6328 51.5176 50.5879L50.1504 83.498C49.9551 88.0879 53.5195 91.7988 58.5 91.7988C63.4316 91.7988 66.9961 88.0879 66.8008 83.498L65.5801 50.5879ZM67.0449 29.7383C67.0449 25.0508 63.1875 22.0234 58.5 22.0234C53.8125 22.0234 50.0039 25.0508 50.0039 29.7383C50.0039 34.4258 53.8125 37.4531 58.5 37.4531C63.1875 37.4531 67.0449 34.4258 67.0449 29.7383Z" fill="white"/>
</svg>
