<svg width="88" height="75" viewBox="0 0 88 75" fill="none" xmlns="http://www.w3.org/2000/svg">
<g clip-path="url(#clip0_2190_2)">
<path d="M50.2793 31.7004H29.9678V50.4416H50.2793V31.7004Z" stroke="#30AEBF" stroke-width="2.26772"/>
<path d="M61.3013 52.5024H40.9897V71.2436H61.3013V52.5024Z" stroke="#30AEBF" stroke-width="2.26772"/>
<path d="M38.9004 52.5024H18.5889V71.2436H38.9004V52.5024Z" stroke="#30AEBF" stroke-width="2.26772"/>
<path d="M0.00488281 73.5886L80.0641 73.2609" stroke="#8CC924" stroke-width="2.26772"/>
<path d="M68.8398 8.97395L76.7948 1.14526" stroke="#EB8788" stroke-width="2.26772" stroke-linecap="round"/>
<path d="M75.0269 12.0043L82.9818 4.17566" stroke="#EB8788" stroke-width="2.26772" stroke-linecap="round"/>
<path d="M78.436 17.4339L86.391 9.60522" stroke="#EB8788" stroke-width="2.26772" stroke-linecap="round"/>
<g clip-path="url(#clip1_2190_2)">
<path d="M55.1867 15.3403C55.2188 14.955 55.2917 14.5742 55.4044 14.2044C55.6201 13.4429 56.0815 12.7668 56.7248 12.2685C57.055 12.0074 57.4277 11.8051 57.8266 11.6705C58.2185 11.5198 58.6309 11.4319 59.0518 11.3996C59.4686 11.3578 59.9222 11.3954 60.3353 11.3936L70.4769 12.2338C70.7924 12.2654 71.1055 12.3169 71.4144 12.3881C71.7229 12.4484 72.0218 12.5483 72.3055 12.6866L72.5843 12.822C72.8476 12.9823 73.0965 13.1653 73.3281 13.3687C73.4019 13.4511 73.4841 13.494 73.5586 13.5716C73.8414 13.8564 74.0703 14.1902 74.234 14.5568C74.4044 14.9213 74.5127 15.3082 74.5486 15.7038C74.5784 16.0867 74.5878 16.4709 74.5769 16.8548L73.8446 25.6936C73.8125 26.0789 73.7395 26.4597 73.6269 26.8295C73.4112 27.591 72.9497 28.2671 72.3065 28.7654C71.9803 29.018 71.6138 29.2137 71.2224 29.3444C70.8305 29.4951 70.4181 29.583 69.9972 29.6153C69.5804 29.6571 69.1269 29.6195 68.7137 29.6213L58.8705 28.8058C58.4433 28.77 58.0201 28.6973 57.6054 28.5887C57.2035 28.4882 56.8183 28.3321 56.4623 28.1264C56.0932 27.9218 55.753 27.6687 55.4511 27.3738C55.172 27.0884 54.9468 26.7549 54.7862 26.3895C54.6117 26.0276 54.5039 25.6405 54.4677 25.2449C54.438 24.8603 54.4287 24.4743 54.4399 24.0887L55.1646 15.3418L55.1867 15.3403Z" fill="#F05138"/>
<path d="M60.856 25.0001C62.5092 26.0407 64.8747 26.3282 67.3341 25.6082C69.2525 25.0507 70.946 23.9568 72.1949 22.4677C71.6428 22.7944 71.0498 23.0542 70.4291 23.2403C67.8817 24.0504 65.4166 23.8 63.7638 22.6881C66.1885 21.2222 68.4079 19.4713 70.3697 17.4762C70.7027 17.1924 71.0059 16.8754 71.2747 16.5301C69.277 17.8717 67.1715 19.0627 64.9771 20.0928C66.6246 18.7481 68.1588 17.2823 69.5651 15.7092C67.2918 17.4633 64.8268 18.9808 62.2114 20.2364L61.9328 20.3562C61.8744 20.1849 61.826 20.0104 61.7881 19.8335C61.3683 17.8993 62.2021 15.8089 63.7887 14.1533C60.3061 15.6873 58.051 18.9264 58.6366 21.8445C58.6303 21.9203 58.6664 22.0002 58.6874 22.0785L58.6582 22.1066C56.8573 23.8211 57.1481 25.8157 57.3868 25.463C58.4159 23.9914 60.0455 24.6057 60.8558 24.9995L60.856 25.0001Z" fill="#FEFEFE"/>
</g>
</g>
<defs>
<clipPath id="clip0_2190_2">
<rect width="87.5361" height="74.7224" fill="white"/>
</clipPath>
<clipPath id="clip1_2190_2">
<rect width="19.4704" height="19.4704" fill="white" transform="matrix(-0.996585 -0.0825668 -0.0825668 0.996585 75.0117 11.6077)"/>
</clipPath>
</defs>
</svg>
