<svg width="158" height="200" viewBox="0 0 158 200" fill="none" xmlns="http://www.w3.org/2000/svg">
<path d="M44.7734 55.6719C43.0807 55.6719 41.6484 55.1185 40.4766 54.0117C39.3698 52.9049 38.8164 51.5052 38.8164 49.8125C38.8164 48.25 39.3698 46.9154 40.4766 45.8086C41.6484 44.7018 43.0807 44.1484 44.7734 44.1484H113.523C115.151 44.1484 116.518 44.7018 117.625 45.8086C118.732 46.9154 119.285 48.25 119.285 49.8125C119.285 51.5052 118.732 52.9049 117.625 54.0117C116.518 55.1185 115.151 55.6719 113.523 55.6719H44.7734ZM44.7734 87.6055C43.0807 87.6055 41.6484 87.0521 40.4766 85.9453C39.3698 84.7734 38.8164 83.3737 38.8164 81.7461C38.8164 80.1185 39.3698 78.7839 40.4766 77.7422C41.6484 76.6354 43.0807 76.082 44.7734 76.082H113.523C115.151 76.082 116.518 76.6354 117.625 77.7422C118.732 78.7839 119.285 80.1185 119.285 81.7461C119.285 83.3737 118.732 84.7734 117.625 85.9453C116.518 87.0521 115.151 87.6055 113.523 87.6055H44.7734ZM44.7734 119.441C43.0807 119.441 41.6484 118.921 40.4766 117.879C39.3698 116.772 38.8164 115.405 38.8164 113.777C38.8164 112.15 39.3698 110.783 40.4766 109.676C41.6484 108.504 43.0807 107.918 44.7734 107.918H77.5859C79.2786 107.918 80.6784 108.504 81.7852 109.676C82.8919 110.783 83.4453 112.15 83.4453 113.777C83.4453 115.405 82.8919 116.772 81.7852 117.879C80.6784 118.921 79.2786 119.441 77.5859 119.441H44.7734ZM0.535156 170.223V30.4766C0.535156 20.6458 3.00911 13.2565 7.95703 8.30859C12.9049 3.29557 20.2292 0.789062 29.9297 0.789062H128.172C137.938 0.789062 145.262 3.29557 150.145 8.30859C155.092 13.2565 157.566 20.6458 157.566 30.4766V170.223C157.566 180.053 155.092 187.443 150.145 192.391C145.262 197.339 137.938 199.812 128.172 199.812H29.9297C20.2292 199.812 12.9049 197.339 7.95703 192.391C3.00911 187.443 0.535156 180.053 0.535156 170.223ZM17.2344 169.441C17.2344 173.934 18.3737 177.352 20.6523 179.695C22.9961 182.104 26.4792 183.309 31.1016 183.309H127C131.622 183.309 135.105 182.104 137.449 179.695C139.793 177.352 140.965 173.934 140.965 169.441V31.2578C140.965 26.7656 139.793 23.3477 137.449 21.0039C135.105 18.6602 131.622 17.4883 127 17.4883H31.1016C26.4792 17.4883 22.9961 18.6602 20.6523 21.0039C18.3737 23.3477 17.2344 26.7656 17.2344 31.2578V169.441Z" fill="black"/>
</svg>
