<svg width="79" height="100" viewBox="0 0 79 100" fill="none" xmlns="http://www.w3.org/2000/svg">
<path d="M64.4395 0.0410156C74.1074 0.0410156 78.9902 5.02148 78.9902 14.7383V67.1797C78.9902 71.7695 76.9395 74.0645 75.0352 75.9199C69.2734 81.6328 70.4453 89.25 76.207 91.6426C77.7695 92.2285 78.9902 93.6934 78.9902 95.4512C78.9902 97.5996 77.2812 99.3574 75.084 99.3574H15.1719C5.69922 99.3574 0.767578 94.4258 0.767578 84.8066V14.7383C0.767578 4.97266 5.65039 0.0410156 15.3184 0.0410156H64.4395ZM64.8301 77.4824C64.3418 77.5801 63.8047 77.6289 63.2676 77.6289H16.2461C11.5586 77.6289 8.58008 80.4121 8.58008 84.5137C8.58008 88.9082 11.1191 91.5449 15.8555 91.5449H65.416C62.9258 87.4434 62.6328 82.3164 64.8301 77.4824ZM14.3418 7.36523C12.877 7.36523 11.6562 8.58594 11.6562 10.0508V67.7656C11.6562 69.2793 12.877 70.4512 14.3418 70.4512C15.8066 70.4512 17.0273 69.2793 17.0273 67.7656V10.0508C17.0273 8.58594 15.8066 7.36523 14.3418 7.36523ZM50.5928 21.334C49.5669 20.8352 44.2608 20.9461 43.1172 21.334C41.9741 21.722 26.7322 49.3796 27.0039 49.7676C27.2789 50.1551 33.0342 49.9892 33.3184 49.7676C33.6015 49.5459 46.0767 26.1001 46.8916 26.1465C47.7102 26.2005 60.2587 49.5459 60.6094 49.7676C60.9622 49.9891 66.72 50.0719 66.9961 49.7676C67.2678 49.4627 51.6187 21.8328 50.5928 21.334ZM51.0283 39.1045C50.5454 38.8621 43.3183 38.9175 42.9717 39.1045C42.6259 39.2915 39.5587 44.682 39.7051 44.9541C39.8541 45.2221 54.0353 45.1944 54.2217 44.9541C54.4068 44.7138 51.5101 39.347 51.0283 39.1045Z" fill="black"/>
</svg>
