<svg width="850" height="429" viewBox="0 0 850 429" fill="none" xmlns="http://www.w3.org/2000/svg">
<path d="M513.172 344.208C514.392 343.561 514.856 342.047 514.208 340.828L503.658 320.954C503.011 319.735 501.497 319.271 500.278 319.919C499.058 320.566 498.594 322.079 499.242 323.299L508.62 340.964L490.954 350.342C489.735 350.989 489.271 352.503 489.919 353.722C490.566 354.942 492.079 355.406 493.299 354.758L513.172 344.208ZM439 173C436.541 172.549 436.541 172.55 436.541 172.551C436.541 172.551 436.54 172.552 436.54 172.553C436.54 172.556 436.539 172.559 436.538 172.563C436.537 172.571 436.535 172.583 436.532 172.599C436.526 172.63 436.518 172.675 436.508 172.735C436.486 172.854 436.455 173.029 436.416 173.259C436.336 173.718 436.222 174.394 436.081 175.267C435.799 177.015 435.409 179.555 434.976 182.742C434.111 189.114 433.073 198.078 432.381 208.459C431 229.172 430.981 255.723 436.572 278.594L439 278L441.428 277.406C436.019 255.277 436 229.328 437.369 208.791C438.052 198.547 439.077 189.699 439.93 183.415C440.357 180.273 440.741 177.775 441.017 176.065C441.155 175.21 441.266 174.553 441.343 174.111C441.381 173.89 441.41 173.723 441.43 173.612C441.44 173.557 441.447 173.515 441.452 173.488C441.455 173.475 441.456 173.465 441.458 173.459C441.458 173.456 441.459 173.453 441.459 173.452C441.459 173.451 441.459 173.451 441.459 173.451C441.459 173.451 441.459 173.451 439 173ZM439 278L436.572 278.594C442.307 302.059 461.252 318.514 478.316 329.005C486.893 334.278 495.111 338.117 501.182 340.637C504.22 341.898 506.727 342.832 508.481 343.453C509.358 343.763 510.047 343.995 510.52 344.151C510.757 344.228 510.94 344.287 511.066 344.327C511.129 344.347 511.177 344.362 511.211 344.373C511.228 344.378 511.241 344.382 511.25 344.385C511.255 344.386 511.259 344.388 511.262 344.389C511.263 344.389 511.265 344.389 511.265 344.39C511.267 344.39 511.267 344.39 512 342C512.733 339.61 512.733 339.61 512.733 339.61C512.733 339.61 512.733 339.61 512.733 339.61C512.732 339.609 512.73 339.609 512.727 339.608C512.721 339.606 512.712 339.603 512.699 339.599C512.673 339.591 512.633 339.579 512.578 339.561C512.468 339.526 512.302 339.473 512.082 339.401C511.642 339.256 510.988 339.036 510.148 338.739C508.468 338.145 506.046 337.242 503.099 336.019C497.201 333.571 489.232 329.847 480.934 324.745C464.248 314.486 446.693 298.941 441.428 277.406L439 278Z" fill="#A1D407"/>
<path d="M336.828 344.208C335.608 343.561 335.144 342.047 335.792 340.828L346.342 320.954C346.989 319.735 348.503 319.271 349.722 319.919C350.942 320.566 351.406 322.079 350.758 323.299L341.38 340.964L359.046 350.342C360.265 350.989 360.729 352.503 360.081 353.722C359.434 354.942 357.921 355.406 356.701 354.758L336.828 344.208ZM411 173C413.459 172.549 413.459 172.55 413.459 172.551C413.459 172.551 413.46 172.552 413.46 172.553C413.46 172.556 413.461 172.559 413.462 172.563C413.463 172.571 413.465 172.583 413.468 172.599C413.474 172.63 413.482 172.675 413.492 172.735C413.514 172.854 413.545 173.029 413.584 173.259C413.664 173.718 413.778 174.394 413.919 175.267C414.201 177.015 414.591 179.555 415.024 182.742C415.889 189.114 416.927 198.078 417.619 208.459C419 229.172 419.019 255.723 413.428 278.594L411 278L408.572 277.406C413.981 255.277 414 229.328 412.631 208.791C411.948 198.547 410.923 189.699 410.07 183.415C409.643 180.273 409.259 177.775 408.983 176.065C408.845 175.21 408.734 174.553 408.657 174.111C408.619 173.89 408.59 173.723 408.57 173.612C408.56 173.557 408.553 173.515 408.548 173.488C408.545 173.475 408.544 173.465 408.542 173.459C408.542 173.456 408.541 173.453 408.541 173.452C408.541 173.451 408.541 173.451 408.541 173.451C408.541 173.451 408.541 173.451 411 173ZM411 278L413.428 278.594C407.693 302.059 388.748 318.514 371.684 329.005C363.107 334.278 354.889 338.117 348.818 340.637C345.78 341.898 343.273 342.832 341.519 343.453C340.642 343.763 339.953 343.995 339.48 344.151C339.243 344.228 339.06 344.287 338.934 344.327C338.871 344.347 338.823 344.362 338.789 344.373C338.772 344.378 338.759 344.382 338.75 344.385C338.745 344.386 338.741 344.388 338.738 344.389C338.737 344.389 338.735 344.389 338.735 344.39C338.733 344.39 338.733 344.39 338 342C337.267 339.61 337.267 339.61 337.267 339.61C337.267 339.61 337.267 339.61 337.267 339.61C337.268 339.609 337.27 339.609 337.273 339.608C337.279 339.606 337.288 339.603 337.301 339.599C337.327 339.591 337.367 339.579 337.422 339.561C337.532 339.526 337.698 339.473 337.918 339.401C338.358 339.256 339.012 339.036 339.852 338.739C341.532 338.145 343.954 337.242 346.901 336.019C352.799 333.571 360.768 329.847 369.066 324.745C385.752 314.486 403.307 298.941 408.572 277.406L411 278Z" fill="#A1D407"/>
<rect x="259" y="5" width="328" height="163" rx="11" stroke="#D81717" stroke-width="10"/>
<rect x="5" y="261" width="328" height="163" rx="11" stroke="#20A14D" stroke-width="10"/>
<rect x="517" y="261" width="328" height="163" rx="11" stroke="#1727D8" stroke-width="10"/>
</svg>
