<svg width="737" height="524" viewBox="0 0 737 524" fill="none" xmlns="http://www.w3.org/2000/svg">
<path d="M116.277 519.023C111.066 523.023 5.06604 526.023 0.0660448 519.023C-4.93396 512.023 275.566 13.0233 296.603 6.02327C317.64 -0.976731 415.306 -2.97678 434.186 6.02327C453.066 15.0233 741.066 513.523 736.066 519.023C731.066 524.523 624.974 523.023 618.52 519.023C612.066 515.023 381.059 93.6953 366.062 92.8592C351.066 92.0232 121.487 515.023 116.277 519.023Z" fill="white"/>
<path d="M500.974 432.187C497.566 436.523 236.566 437.023 233.823 432.187C231.08 427.351 287.566 330.023 293.932 326.648C300.298 323.273 433.335 322.273 442.2 326.648C451.066 331.023 504.381 427.851 500.974 432.187Z" fill="white"/>
</svg>
