<svg width="249" height="239" viewBox="0 0 249 239" fill="none" xmlns="http://www.w3.org/2000/svg">
<path d="M24.9023 123.91C24.9023 107.829 27.2461 93.2461 31.9336 80.1602C36.6862 67.0091 43.4245 55.7461 52.1484 46.3711C60.8724 36.931 71.3216 29.6719 83.4961 24.5938C95.7357 19.5156 109.342 16.9766 124.316 16.9766C139.225 16.9766 152.767 19.5156 164.941 24.5938C177.181 29.6719 187.663 36.931 196.387 46.3711C205.176 55.7461 211.914 67.0091 216.602 80.1602C221.354 93.2461 223.73 107.829 223.73 123.91C223.73 133.741 222.819 143.767 220.996 153.988C219.173 164.145 216.536 174.073 213.086 183.773C209.635 193.474 205.534 202.523 200.781 210.922C199.609 213.005 197.949 214.307 195.801 214.828C193.717 215.414 191.569 215.089 189.355 213.852C187.272 212.745 185.97 211.117 185.449 208.969C184.993 206.885 185.384 204.704 186.621 202.426C193.132 190.512 198.177 177.751 201.758 164.145C205.339 150.473 207.129 137.061 207.129 123.91C207.129 110.368 205.143 98.0638 201.172 86.9961C197.266 75.9284 191.634 66.4232 184.277 58.4805C176.986 50.4727 168.262 44.3203 158.105 40.0234C147.949 35.7266 136.686 33.5781 124.316 33.5781C111.882 33.5781 100.586 35.7266 90.4297 40.0234C80.2734 44.3203 71.5495 50.4727 64.2578 58.4805C56.9661 66.4232 51.3346 75.9284 47.3633 86.9961C43.457 98.0638 41.5039 110.368 41.5039 123.91C41.5039 137.061 43.2617 150.473 46.7773 164.145C50.3581 177.751 55.4036 190.512 61.9141 202.426C63.151 204.704 63.5091 206.885 62.9883 208.969C62.5326 211.117 61.263 212.745 59.1797 213.852C56.9661 215.089 54.7852 215.414 52.6367 214.828C50.5534 214.307 48.9258 213.005 47.7539 210.922C43.0013 202.523 38.8997 193.474 35.4492 183.773C32.0638 174.073 29.4596 164.145 27.6367 153.988C25.8138 143.767 24.9023 133.741 24.9023 123.91ZM55.4688 208.48L41.5039 160.922C39.8112 155.258 40.1693 150.212 42.5781 145.785C44.987 141.293 49.0234 138.233 54.6875 136.605C60.3516 135.043 65.3646 135.466 69.7266 137.875C74.1536 140.219 77.181 144.19 78.8086 149.789L92.7734 197.445C94.4661 203.044 94.1081 208.057 91.6992 212.484C89.2904 216.977 85.2539 220.036 79.5898 221.664C73.9258 223.292 68.8802 222.901 64.4531 220.492C60.0911 218.083 57.0964 214.079 55.4688 208.48ZM193.066 208.48C191.439 214.079 188.411 218.083 183.984 220.492C179.622 222.901 174.609 223.292 168.945 221.664C163.346 220.036 159.31 217.009 156.836 212.582C154.427 208.155 154.069 203.109 155.762 197.445L169.727 149.789C171.354 144.19 174.349 140.219 178.711 137.875C183.138 135.466 188.184 135.043 193.848 136.605C199.512 138.233 203.548 141.26 205.957 145.688C208.366 150.115 208.724 155.193 207.031 160.922L193.066 208.48Z" fill="#D88E17"/>
</svg>
